<svg id="logo" xmlns="http://www.w3.org/2000/svg" xmlns:xlink="http://www.w3.org/1999/xlink" viewBox="0 0 150 145" shape-rendering="geometricPrecision" text-rendering="geometricPrecision" width="150" height="145"><g id="logo-g1" transform="matrix(1 0 0 1 0 0.18518500000000)"><path id="logo-path1" d="M144.610156,25.508749C141.143444,18.957532,135.964202,13.334311,130.089695,8.699061C123.433416,3.441989,112.650404,-2.176497,100.508902,0.852120C87.611259,4.074858,82.476873,15.120864,74.619100,24.389787C70.215222,17.429809,69.042563,7.872070,62.107538,3.937552C57.195828,1.155139,48.016411,0.324992,40.483842,0.852120C27.985095,1.737504,17.878124,7.932043,12.320812,13.739916C4.474252,21.930910,-1.578076,34.701918,0.366743,51.285919C2.851434,72.486233,16.397883,85.872749,29.390043,100.600757C35.812431,107.879537,40.893952,115.655458,47.021573,122.173533C53.014628,128.530629,58.456596,134.748840,64.276636,140.563026L64.387173,140.660876C64.710775,141.014398,65.005542,141.311105,65.314726,141.634641C68.201517,128.710546,71.921344,111.522083,72.006250,108.501358C72.147225,103.550462,66.916719,105.404878,60.920461,99.567019C57.645988,96.382158,50.941649,89.365364,47.273086,87.214242C41.475475,83.816320,44.618584,81.201199,49.743359,82.189169C55.723597,83.344431,57.873471,86.811794,60.619286,85.011037C62.482404,83.789491,65.071224,78.153644,64.451253,74.200188C64.063570,71.793392,60.769874,65.243753,58.153820,57.791369C55.730005,50.894520,54.791237,44.224935,58.100954,43.854052C63.257768,43.285890,63.328256,49.158471,66.026012,55.400355C69.566415,63.547160,73.808492,71.848630,73.808492,71.848630C73.808492,71.848630,73.566591,61.389725,74.487736,52.894132C75.134941,46.882668,74.692791,38.320790,77.486666,38.320790C77.539532,38.320790,77.594000,38.320790,77.645263,38.331838C83.712010,38.985224,82.665908,46.754832,82.864555,52.944636C83.130486,61.044093,83.207382,72.244765,83.207382,72.244765C83.207382,72.244765,86.017277,65.289522,88.992177,56.965956C91.164479,50.885050,91.424002,45.092960,95.528307,45.612196C99.272164,46.088820,97.516380,52.726840,96.105024,59.101296C94.454972,66.558415,93.873449,73.461578,93.873449,73.461578C93.873449,73.461578,98.222858,69.364502,100.933430,64.352055C103.241901,60.087688,104.060519,59.939335,105.973299,61.279248C107.323778,62.229341,107.754714,62.999515,105.515129,67.262305C103.124956,71.836004,101.236206,76.045134,100.467250,78.642895C99.853687,80.734044,98.242082,92.042036,97.178359,96.468961C95.642049,102.781866,91.097195,106.913662,91.097195,106.913662L91.737992,139.440907C100.848524,132.097420,109.444816,122.519164,117.573327,113.204473C127.292616,102.090603,138.206991,89.684166,144.035040,77.059934C150.692922,62.639680,151.697371,38.934720,144.610156,25.508749" transform="matrix(1 0 0 1 0.00000001000001 0.81481499000000)" fill="rgb(255,255,255)" fill-rule="evenodd" stroke="none" stroke-width="1"/></g></svg>